<svg width="686" height="364" viewBox="0 0 686 364" fill="none" xmlns="http://www.w3.org/2000/svg">
<path fill-rule="evenodd" clip-rule="evenodd" d="M303.685 340.955C300.305 338.019 287.027 335.629 272.404 319.189C258.837 303.937 259.181 296.499 253.626 284.928C241.973 284.928 229.006 282.53 217.588 281.922C204.539 281.227 193.186 280.873 179.505 280.892C163.218 280.915 118.217 286.929 107.454 286.929C108.739 282.118 127.393 261.85 132.241 256.673L197.856 182.175C209.46 168.326 231.914 145.922 242.464 132.707L265.386 108.59C268.893 105.044 271.516 103.519 274.916 100.106C300.393 74.5165 302.368 76.991 327.311 58.4187C334.989 52.7018 339.759 46.7887 339.767 33.8199C339.776 15.0515 331.087 9.3429 314.103 3.38966C307.909 1.21894 305.237 1.44701 297.976 0.495764C289.432 -0.622093 271.172 0.338606 262.362 1.51909C245.69 3.75362 215.312 4.33617 194.132 7.37188L160.424 10.7054C148.827 11.8244 137.598 12.6279 125.897 14.222C91.827 18.8612 63.4174 21.1761 31.9889 32.4327C23.9184 35.323 12.4138 40.4503 7.60579 46.0845C-10.3753 67.1536 6.36535 82.8638 28.3256 82.8674C54.039 82.8709 166.09 70.9042 199.14 66.402L233.603 62.8228C232.679 64.0812 228.52 67.5577 226.828 69.0596C200.236 92.6539 182.403 111.583 157.248 136.593C154.31 139.513 153.52 141.284 150.775 144.131L131.221 165.61C121.401 175.688 75.0166 233.784 69.9708 240.469L16.9251 311.519C12.9093 317.1 9.38072 321.343 5.73981 327.354C2.42999 332.819 -1.46989 340.174 1.11623 348.165C3.10402 354.307 9.88211 359.751 15.4446 361.865C29.2515 367.11 49.1624 359.887 60.5262 356.09C74.1415 351.539 87.9744 346.368 102.232 342.741C126.109 336.666 149.658 334.018 174.568 333.986C180.588 333.977 181.847 332.981 187.531 332.888C193.622 332.788 195.297 333.827 200.531 333.985C215.709 334.438 239.337 333.317 254.049 335.53C264.322 337.076 276.844 337.149 291.249 339.376C295.908 340.096 298.671 340.955 303.685 340.955Z" fill="#36B274"/>
<path fill-rule="evenodd" clip-rule="evenodd" d="M528.951 315.943H523.946C524.44 309.999 528.457 309.999 528.951 315.943ZM685.136 244.724V254.065C683.686 282.289 669.437 312.628 648.381 328.238C640.402 334.155 631.473 340.345 622.202 344.097C618.716 345.508 616.611 346.914 612.444 348.352C581.551 359.018 546.362 360.006 515.286 349.607C502.573 345.354 487.609 337.032 478.667 329.174C472.139 323.437 469.755 321.571 464.1 314.717C449.54 297.068 441.848 270.841 441.848 245.91C441.848 218.545 460.536 185.514 479.468 172.451L502.921 159.868C490.87 157.063 485.277 156.648 475.818 150.935C465.885 144.936 460.871 139.265 460.871 126.853C460.871 105.955 499.986 84.4921 507.177 78.0816C510.631 75.001 513.285 71.8341 516.665 68.5526C529.69 55.9064 549.544 54.349 565.709 64.1095C579.246 72.2843 570.002 66.8097 583.308 72.5336C591.51 76.0621 609.81 87.5089 614.052 93.8367L561.412 134.279C554.412 139.756 552.151 142.861 539.964 142.861C542.24 144.837 541.669 144.932 545.52 144.542C546.243 144.469 551.461 143.493 552.36 143.245C574.424 137.152 598.521 109.111 616.054 99.8396C609.22 129.151 559.962 152.852 540.945 177.857C531.518 190.251 528.951 199.669 528.951 215.896C532.233 214.708 529.957 216.088 532.071 213.009C534.671 209.217 545.122 189.883 550.978 189.883C564.709 189.883 565.916 217.896 555.983 217.896C551.151 217.896 549.034 213.438 547.974 208.892C542.447 212.939 537.119 235.144 535.583 243.533C534.692 248.396 533.406 250.912 527.949 250.912C520.871 250.912 520.202 239.599 516.937 234.904C516.937 257.511 519.873 271.088 532.237 287.647C538.266 295.721 541.785 298.485 549.964 303.95C569.815 317.214 593.037 314.566 614.352 306.239C629.325 300.39 633.676 295.94 643.226 284.066C657.795 265.951 663.903 233.724 646.502 216.484C638.863 208.916 632.451 205.891 620.059 205.891C621.657 207.279 621.14 206.889 623.198 207.756C644.001 216.522 640.292 235.436 628.521 245.362C623.417 249.665 617.932 252.913 609.045 252.913C577.894 252.913 574.567 213.719 594.432 198.29C612.643 184.146 634.201 183.298 654.456 193.528C660.886 196.775 664.568 200.856 669.382 205.626C679.406 215.559 684.32 229.533 685.136 244.724ZM499.917 311.94H494.912C495.406 305.998 499.422 305.998 499.917 311.94ZM515.935 290.93C521.082 291.045 518.811 290.025 520.942 292.932C518.166 296.719 516.573 295.895 515.935 290.93ZM494.912 290.93C488.33 290.93 493.201 280.135 498.916 287.929C497.873 289.486 497.589 290.93 494.912 290.93ZM466.878 280.926C466.878 275.498 475.889 275.498 475.889 280.926C475.889 286.355 466.878 286.355 466.878 280.926ZM497.915 263.919C502.331 282.352 477.994 263.919 497.915 263.919ZM460.871 254.914C460.871 242.949 476.89 242.391 476.89 255.914C476.89 263.034 460.871 266.231 460.871 254.914ZM456.866 235.905C450.239 235.905 455.409 224.754 460.871 232.904C459.827 234.461 459.543 235.905 456.866 235.905ZM467.88 223.899C467.88 208.917 488.429 218.618 480.415 228.423C476.841 232.798 467.88 231.549 467.88 223.899ZM468.88 197.887C474.696 197.887 476.874 205.03 468.88 206.891C462.356 202.525 466.095 197.887 468.88 197.887ZM485.901 188.883C479.363 188.883 484.091 177.205 489.905 185.881C488.862 187.438 488.578 188.883 485.901 188.883ZM475.889 140.86C475.889 131.919 483.898 136.29 483.898 139.859C483.898 146.155 475.889 144.722 475.889 140.86ZM508.928 139.859C507.361 141.643 503.766 141.552 503.076 138.628C501.575 132.265 512.746 135.509 508.928 139.859ZM490.907 130.855C482.39 130.855 481.585 117.214 490.907 117.214C500.228 117.214 499.423 130.855 490.907 130.855ZM499.917 106.843C502.594 106.843 502.878 108.287 503.922 109.845C494.731 115.995 494.442 106.843 499.917 106.843ZM513.933 94.8376V89.8356C513.933 68.9579 545.6 56.8848 562.262 73.5558C588.781 100.087 548.726 132.64 524.21 112.582C519.764 108.944 513.933 102.462 513.933 94.8376Z" fill="#36B274"/>
<path fill-rule="evenodd" clip-rule="evenodd" d="M259.633 247.911C259.633 282.196 274.999 314.812 302.653 328.98C306.579 330.993 313.473 333.357 317.812 334.842C347.17 344.884 385.494 330.096 407.821 312.953C416.9 305.981 429.71 294.453 436.086 285.125C438.277 281.918 437.857 280.698 436.908 276.943C432.511 259.532 432.453 239.097 437.959 222.013C445.034 200.062 450.997 203.18 437.622 190.105C417.227 170.168 373.067 167.189 358.296 182.426C348.517 192.515 355.936 203.82 367.38 207.271C375.291 209.657 401.825 216.001 408.412 220.295C437.117 239.012 396.473 302.936 349.74 302.936C318.648 302.936 300.681 276.674 300.681 245.91C300.681 217.102 311.85 197.52 331.448 178.607C338.097 172.191 350.569 164.945 360.024 161.142C379.334 153.376 391.789 160.648 391.789 143.861C391.789 137.593 385.842 132.743 381.152 130.48C359.296 119.934 336.493 126.711 318.887 138.042C281.209 162.292 259.633 201.827 259.633 247.911Z" fill="#36B274"/>
<path fill-rule="evenodd" clip-rule="evenodd" d="M530.953 109.845C519.836 109.845 517.242 93.8367 531.955 93.8367C542.629 93.8367 541.94 109.845 530.953 109.845ZM539.964 115.848C552.464 115.848 562.992 106.507 562.992 92.837C562.992 82.5199 552.197 72.8279 541.967 72.8279H536.96C511.259 72.8279 507.654 115.848 539.964 115.848Z" fill="#36B274"/>
<path fill-rule="evenodd" clip-rule="evenodd" d="M303.685 340.955C305.028 341.969 301.58 341.955 306.688 341.955V340.955H303.685Z" fill="#36B274"/>
</svg>
